{
  "accessors": [
    {
      "bufferView": 2,
      "componentType": 5126,
      "count": 65532,
      "max": [
        1.8661319017410278,
        2.569636106491089,
        2.5477325916290283
      ],
      "min": [
        -1.8661247491836548,
        -2.2079107761383057,
        -2.997575044631958
      ],
      "type": "VEC3"
    },
    {
      "bufferView": 2,
      "byteOffset": 786384,
      "componentType": 5126,
      "count": 65532,
      "max": [
        0.9999991655349731,
        0.9999982118606567,
        0.9999518990516663
      ],
      "min": [
        -0.9999942183494568,
        -0.9999947547912598,
        -0.9991228580474854
      ],
      "type": "VEC3"
    },
    {
      "bufferView": 1,
      "componentType": 5126,
      "count": 65532,
      "max": [
        0.9648299813270569,
        0.9980400204658508
      ],
      "min": [
        0.07582999765872955,
        0.007110000122338533
      ],
      "type": "VEC2"
    },
    {
      "bufferView": 0,
      "componentType": 5125,
      "count": 325149,
      "type": "SCALAR"
    },
    {
      "bufferView": 2,
      "byteOffset": 1572768,
      "componentType": 5126,
      "count": 65156,
      "max": [
        1.8551918268203735,
        2.5683517456054688,
        2.541369915008545
      ],
      "min": [
        -1.8657584190368652,
        -2.2079107761383057,
        -3.034722328186035
      ],
      "type": "VEC3"
    },
    {
      "bufferView": 2,
      "byteOffset": 2354640,
      "componentType": 5126,
      "count": 65156,
      "max": [
        0.9999998211860657,
        0.9999698996543884,
        0.9999596476554871
      ],
      "min": [
        -0.9999998211860657,
        -0.9999522566795349,
        -0.9999825358390808
      ],
      "type": "VEC3"
    },
    {
      "bufferView": 1,
      "byteOffset": 524256,
      "componentType": 5126,
      "count": 65156,
      "max": [
        0.9575200080871582,
        0.9973999857902527
      ],
      "min": [
        0.0024399999529123306,
        0.0019499999471008778
      ],
      "type": "VEC2"
    },
    {
      "bufferView": 0,
      "byteOffset": 1300596,
      "componentType": 5125,
      "count": 298863,
      "type": "SCALAR"
    }
  ],
  "asset": {
    "extras": {
      "author": "frezer2011 (https://sketchfab.com/frezer2011)",
      "license": "CC-BY-4.0 (http://creativecommons.org/licenses/by/4.0/)",
      "source": "https://sketchfab.com/3d-models/elon-musk-head-c00ff17b99614e0481910fd2324f7a7f",
      "title": "Elon Musk Head"
    },
    "generator": "Sketchfab-13.14.0",
    "version": "2.0"
  },
  "bufferViews": [
    {
      "buffer": 0,
      "byteLength": 2496048,
      "name": "floatBufferViews",
      "target": 34963
    },
    {
      "buffer": 0,
      "byteLength": 1045504,
      "byteOffset": 2496048,
      "byteStride": 8,
      "name": "floatBufferViews",
      "target": 34962
    },
    {
      "buffer": 0,
      "byteLength": 3136512,
      "byteOffset": 3541552,
      "byteStride": 12,
      "name": "floatBufferViews",
      "target": 34962
    }
  ],
  "buffers": [
    {
      "byteLength": 6678064,
      "uri": "scene.bin"
    }
  ],
  "images": [
    {
      "uri": "textures/defaultMat_baseColor.png"
    }
  ],
  "materials": [
    {
      "doubleSided": true,
      "name": "defaultMat",
      "pbrMetallicRoughness": {
        "baseColorTexture": {
          "index": 0
        },
        "metallicFactor": 0.2151295731707317,
        "roughnessFactor": 0.5687881097560976
      }
    }
  ],
  "meshes": [
    {
      "name": "Object_0",
      "primitives": [
        {
          "attributes": {
            "NORMAL": 1,
            "POSITION": 0,
            "TEXCOORD_0": 2
          },
          "indices": 3,
          "material": 0,
          "mode": 4
        }
      ]
    },
    {
      "name": "Object_1",
      "primitives": [
        {
          "attributes": {
            "NORMAL": 5,
            "POSITION": 4,
            "TEXCOORD_0": 6
          },
          "indices": 7,
          "material": 0,
          "mode": 4
        }
      ]
    }
  ],
  "nodes": [
    {
      "children": [
        1
      ],
      "matrix": [
        1.0,
        0.0,
        0.0,
        0.0,
        0.0,
        2.220446049250313e-16,
        -1.0,
        0.0,
        0.0,
        1.0,
        2.220446049250313e-16,
        0.0,
        0.0,
        0.0,
        0.0,
        1.0
      ],
      "name": "Sketchfab_model"
    },
    {
      "children": [
        2,
        3
      ],
      "name": "Elon Musk head_V1.OBJ.cleaner.materialmerger.gles"
    },
    {
      "mesh": 0,
      "name": "Object_2"
    },
    {
      "mesh": 1,
      "name": "Object_3"
    }
  ],
  "samplers": [
    {
      "magFilter": 9729,
      "minFilter": 9987,
      "wrapS": 10497,
      "wrapT": 10497
    }
  ],
  "scene": 0,
  "scenes": [
    {
      "name": "Sketchfab_Scene",
      "nodes": [
        0
      ]
    }
  ],
  "textures": [
    {
      "sampler": 0,
      "source": 0
    }
  ]
}
